<svg width="37" height="37" viewBox="0 0 37 37" fill="none" xmlns="http://www.w3.org/2000/svg">
<path d="M26.2601 19.9973C26.2678 20.0821 26.2678 20.1669 26.2678 20.2517C26.2678 24.4989 22.8223 27.9444 18.5751 27.9444C14.3202 27.9444 10.8823 24.4989 10.8823 20.2517C10.8823 20.1669 10.8823 20.0821 10.89 19.9973C11.0211 15.8657 14.4127 12.5589 18.5751 12.5589C22.7375 12.5589 26.1291 15.8657 26.2601 19.9973ZM21.9513 20.2517C21.9513 18.3863 20.4405 16.8755 18.5751 16.8755C16.7097 16.8755 15.1989 18.3863 15.1989 20.2517C15.1989 22.117 16.7097 23.6355 18.5751 23.6355C20.4405 23.6355 21.9513 22.117 21.9513 20.2517Z" fill="white"/>
<path d="M35.4561 16.8678C35.51 17.4151 35.5331 17.9778 35.5331 18.5405C35.5331 27.9136 27.9406 35.4985 18.5752 35.4985C9.20974 35.4985 1.61719 27.9136 1.61719 18.5405C1.61719 17.9778 1.64031 17.4151 1.69427 16.8678H1.70198C1.70198 16.8678 4.33046 19.5194 10.8901 19.9973C10.8824 20.0821 10.8824 20.1669 10.8824 20.2517C10.8824 24.4989 14.3203 27.9444 18.5752 27.9444C22.8224 27.9444 26.2679 24.4989 26.2679 20.2517C26.2679 20.1669 26.2679 20.0821 26.2602 19.9973C32.8199 19.5194 35.4484 16.8678 35.4484 16.8678H35.4561Z" fill="#FFF3E0"/>
<path d="M35.456 16.8678H35.4483C35.4483 16.8678 32.8198 19.5194 26.2602 19.9973C26.1291 15.8657 22.7375 12.5589 18.5751 12.5589C14.4127 12.5589 11.0211 15.8657 10.8901 19.9973C4.33041 19.5194 1.70192 16.8678 1.70192 16.8678H1.69421C2.5344 8.28857 9.78009 1.58246 18.5751 1.58246C27.3701 1.58246 34.6158 8.28857 35.456 16.8678Z" fill="#FF5252"/>
<path d="M18.5752 23.6317C20.4398 23.6317 21.9513 22.1184 21.9513 20.2517C21.9513 18.3849 20.4398 16.8716 18.5752 16.8716C16.7105 16.8716 15.199 18.3849 15.199 20.2517C15.199 22.1184 16.7105 23.6317 18.5752 23.6317Z" fill="#FF5252"/>
<path d="M18.5035 37C28.7014 37 36.9992 28.7006 36.9992 18.5004C36.9992 17.8899 36.9715 17.2794 36.916 16.6867V16.6828V16.6797C35.9864 7.17091 28.0709 0 18.5042 0C8.933 0 1.01517 7.17091 0.0847899 16.6797V16.6843L0.0840191 16.6867C0.0285202 17.2817 0 17.8914 0 18.5004C0 28.7006 8.30093 37 18.5035 37ZM18.5042 3.08404C26.1947 3.08404 32.604 8.64318 33.7433 16.1463C33.7225 16.1602 33.6986 16.1756 33.6762 16.1902C33.603 16.2388 33.5228 16.2897 33.4357 16.3429C33.3926 16.3691 33.3486 16.3953 33.3032 16.423C33.1983 16.4847 33.0827 16.5494 32.9601 16.6157C32.9224 16.6366 32.8885 16.6558 32.8492 16.6766C32.6827 16.7637 32.5015 16.8531 32.3042 16.9433C32.2633 16.9618 32.2171 16.9811 32.1747 16.9996C32.0136 17.0713 31.8432 17.1437 31.6629 17.2154C31.5912 17.244 31.5172 17.2717 31.4424 17.3002C31.2682 17.3665 31.084 17.4313 30.892 17.4952C30.815 17.5207 30.741 17.5469 30.6616 17.5723C30.3879 17.6594 30.1012 17.7442 29.7936 17.8244C29.7882 17.8259 29.7828 17.8267 29.7774 17.8282C29.4799 17.9053 29.1623 17.9762 28.8324 18.0433C28.7291 18.0641 28.6204 18.0834 28.5141 18.1026C28.2666 18.1489 28.0107 18.1913 27.7463 18.2306C27.6747 18.2414 27.6022 18.2514 27.529 18.2614C27.5213 18.2237 27.5089 18.1867 27.5005 18.1489C27.4766 18.041 27.4465 17.9361 27.4187 17.8305C27.3748 17.661 27.3278 17.4929 27.2746 17.328C27.2391 17.2193 27.2006 17.1129 27.1621 17.0065C27.1042 16.8485 27.0434 16.6928 26.9778 16.5394C26.9324 16.4346 26.8861 16.3298 26.8375 16.2265C26.7659 16.0762 26.6903 15.9282 26.6109 15.7825C26.5577 15.6846 26.5053 15.5859 26.4483 15.4903C26.3612 15.3431 26.2679 15.2005 26.1731 15.0579C26.1153 14.9708 26.059 14.8829 25.9981 14.7982C25.8879 14.6455 25.7707 14.4991 25.6513 14.3534C25.5965 14.2871 25.5464 14.217 25.4902 14.1522C25.3113 13.9456 25.1248 13.7468 24.9282 13.5571C24.909 13.5379 24.8866 13.5217 24.8673 13.5032C24.6893 13.3344 24.5051 13.1717 24.3131 13.0176C24.2391 12.9582 24.1613 12.9043 24.085 12.8472C23.9424 12.7393 23.799 12.6322 23.6502 12.5327C23.5593 12.4718 23.4652 12.4163 23.372 12.3585C23.2309 12.2714 23.0891 12.1859 22.9434 12.1065C22.8424 12.0517 22.7391 12.0001 22.6358 11.9492C22.4901 11.8768 22.3429 11.8074 22.1934 11.7426C22.0862 11.6964 21.9775 11.6517 21.8681 11.6093C21.7147 11.5499 21.559 11.496 21.4025 11.4443C21.2915 11.4081 21.1813 11.3719 21.0687 11.3403C20.9038 11.2932 20.7358 11.2539 20.5669 11.2154C20.4583 11.1907 20.3503 11.1637 20.2401 11.1429C20.052 11.1075 19.8609 11.0828 19.6689 11.0589C19.5741 11.0474 19.4801 11.0304 19.3845 11.0219C19.0955 10.9949 18.8025 10.9795 18.5058 10.9795C18.209 10.9795 17.9161 10.9957 17.6263 11.0219C17.5307 11.0304 17.4382 11.0474 17.3434 11.0589C17.1507 11.0828 16.9588 11.1082 16.7699 11.1429C16.6604 11.1637 16.5533 11.19 16.4446 11.2146C16.275 11.2524 16.1062 11.2925 15.9397 11.3395C15.828 11.3711 15.7193 11.4066 15.609 11.4428C15.4503 11.4944 15.293 11.5492 15.1381 11.6093C15.0302 11.6509 14.9238 11.6948 14.8182 11.7403C14.6656 11.8058 14.516 11.8768 14.3673 11.95C14.2663 12.0001 14.1661 12.0502 14.0674 12.1034C13.9179 12.1843 13.773 12.2714 13.6296 12.3601C13.5394 12.4163 13.4477 12.4703 13.359 12.5289C13.2056 12.6314 13.0584 12.7408 12.912 12.8518C12.8403 12.9066 12.7655 12.9574 12.6954 13.0137C12.4957 13.174 12.3038 13.3428 12.118 13.5194C12.1057 13.5317 12.0918 13.5417 12.0787 13.5541C11.8806 13.7444 11.6933 13.9449 11.5129 14.153C11.4605 14.2139 11.4135 14.2786 11.3626 14.3403C11.2401 14.4898 11.1183 14.6409 11.005 14.7982C10.9456 14.8806 10.8909 14.967 10.8338 15.0517C10.7375 15.1959 10.6427 15.3408 10.554 15.4903C10.4985 15.5844 10.4469 15.6807 10.3945 15.7771C10.3143 15.9251 10.2372 16.0739 10.1648 16.2265C10.1162 16.3282 10.0707 16.4315 10.026 16.5356C9.95973 16.6897 9.89807 16.847 9.84025 17.0058C9.80171 17.1121 9.76317 17.2177 9.72849 17.3257C9.6753 17.4906 9.62828 17.6594 9.58357 17.829C9.55582 17.9354 9.52576 18.0402 9.50187 18.1481C9.49339 18.1867 9.48105 18.2229 9.47257 18.2614C9.40012 18.2514 9.32766 18.2414 9.25674 18.2306C8.99081 18.1913 8.73336 18.1481 8.48439 18.1019C8.37878 18.0818 8.27087 18.0633 8.16835 18.0425C7.83459 17.9747 7.51238 17.903 7.21177 17.8251C7.20945 17.8244 7.20791 17.8244 7.2056 17.8236C6.89804 17.7442 6.61284 17.6587 6.3392 17.5723C6.25749 17.5461 6.18041 17.5191 6.10102 17.4929C5.91217 17.4297 5.72948 17.365 5.55759 17.3002C5.48205 17.2717 5.40574 17.2432 5.33328 17.2139C5.15291 17.1422 4.98256 17.0697 4.82146 16.9981C4.77984 16.9796 4.73436 16.9611 4.69428 16.9426C4.49772 16.8524 4.31658 16.763 4.15085 16.6759C4.11077 16.655 4.07608 16.635 4.03831 16.6142C3.91575 16.5479 3.79936 16.4832 3.69453 16.4215C3.65136 16.3961 3.61051 16.3714 3.57043 16.3467C3.47639 16.2889 3.38851 16.2334 3.31066 16.1818C3.2937 16.1702 3.27443 16.1579 3.25824 16.1471C4.39597 8.64317 10.8084 3.08404 18.5042 3.08404ZM24.6515 20.2139C24.6515 23.604 21.8935 26.3635 18.5035 26.3635C15.1096 26.3635 12.3477 23.6047 12.3477 20.2139L12.3485 20.1129C12.3523 20.0775 12.3547 20.0412 12.3554 20.005C12.4587 16.6728 15.1597 14.0628 18.5035 14.0628C21.8426 14.0628 24.5397 16.6728 24.6438 20.005C24.6446 20.0251 24.6484 20.0829 24.65 20.1029C24.653 20.1399 24.6515 20.1769 24.6515 20.2139ZM3.32376 19.7013C3.4101 19.7414 3.49566 19.7815 3.58661 19.8223C3.69992 19.8732 3.82017 19.9225 3.94042 19.9734C4.03369 20.0127 4.12464 20.0513 4.22254 20.0898C4.35281 20.1415 4.49078 20.1923 4.62876 20.2424C4.72742 20.2787 4.82223 20.3149 4.92398 20.3503C5.0766 20.4035 5.23847 20.4544 5.39957 20.5061C5.49747 20.5377 5.59074 20.5693 5.69171 20.6001C5.90138 20.6633 6.1226 20.7234 6.34614 20.7828C6.40703 20.799 6.4633 20.8167 6.52497 20.8321C6.81325 20.9053 7.11387 20.9755 7.42528 21.0402C7.51932 21.0603 7.62107 21.0765 7.71742 21.0957C7.94019 21.1397 8.16296 21.1828 8.39651 21.2214C8.52832 21.243 8.66861 21.2607 8.8035 21.2807C8.98002 21.3069 9.15191 21.3355 9.3346 21.3586C9.3531 21.5058 9.38393 21.6484 9.40937 21.7933C9.42864 21.9059 9.44405 22.0199 9.46718 22.1309C9.50957 22.3313 9.5643 22.5264 9.6198 22.7214C9.64447 22.8077 9.66297 22.8964 9.68994 22.9819C9.77782 23.2602 9.87725 23.5331 9.98979 23.7998C10.0006 23.8252 10.0145 23.8483 10.0252 23.8738C10.1293 24.1135 10.2418 24.3493 10.3652 24.5775C10.4114 24.6638 10.4654 24.7448 10.5139 24.8296C10.6088 24.993 10.7036 25.1564 10.8084 25.3129C10.8716 25.4085 10.9418 25.4986 11.0088 25.5911C11.109 25.7299 11.2085 25.8686 11.3164 26.002C11.3927 26.096 11.4736 26.1854 11.553 26.2764C11.6617 26.4005 11.7704 26.5231 11.8852 26.641C11.9716 26.7296 12.0617 26.8144 12.1519 26.9C12.2691 27.011 12.387 27.1197 12.5096 27.2245C12.6059 27.3062 12.7038 27.3856 12.8033 27.4634C12.9289 27.5621 13.0561 27.6577 13.1864 27.7502C13.2904 27.8234 13.3953 27.8951 13.5024 27.9637C13.6373 28.0508 13.7745 28.1333 13.9133 28.2135C14.0235 28.2767 14.1329 28.3391 14.2455 28.3977C14.3896 28.4732 14.5376 28.5426 14.6864 28.6104C14.8005 28.6628 14.9145 28.7153 15.0309 28.7623C15.1859 28.8255 15.3439 28.8802 15.5027 28.9349C15.6198 28.975 15.7355 29.0174 15.8542 29.0536C16.023 29.1045 16.1949 29.1446 16.3675 29.1862C16.4816 29.2132 16.5934 29.2448 16.709 29.2672C16.9033 29.3057 17.1014 29.3311 17.2995 29.3573C17.3981 29.3704 17.4937 29.3889 17.5931 29.399C17.8922 29.4283 18.1959 29.4452 18.5027 29.4452C18.8095 29.4452 19.1124 29.4283 19.4115 29.399C19.5109 29.3897 19.6065 29.3704 19.7052 29.3573C19.9033 29.3311 20.1014 29.3049 20.2956 29.2672C20.4105 29.244 20.5222 29.2132 20.6363 29.1862C20.809 29.1454 20.9816 29.1045 21.1497 29.0536C21.2684 29.0182 21.3832 28.9758 21.5004 28.9357C21.6592 28.881 21.8172 28.8255 21.9721 28.763C22.0885 28.7153 22.2019 28.6628 22.3159 28.6112C22.4647 28.5434 22.6119 28.474 22.7568 28.3984C22.8694 28.3399 22.9788 28.2782 23.0883 28.215C23.2278 28.1348 23.3658 28.0516 23.5007 27.9645C23.607 27.8959 23.7111 27.825 23.8144 27.7525C23.9454 27.66 24.0734 27.5637 24.199 27.4642C24.2977 27.3864 24.3956 27.3085 24.4904 27.2268C24.6137 27.1212 24.7324 27.0117 24.8496 26.9C24.939 26.8152 25.0284 26.7312 25.114 26.6425C25.2296 26.5238 25.3391 26.3997 25.4478 26.2749C25.5264 26.1847 25.6066 26.0968 25.6821 26.0035C25.7908 25.8694 25.891 25.7291 25.9927 25.5888C26.0582 25.4971 26.1276 25.4084 26.1901 25.3144C26.2957 25.1556 26.3912 24.9907 26.4876 24.8257C26.5354 24.7432 26.5878 24.6638 26.6333 24.5791C26.7582 24.347 26.8722 24.1081 26.9778 23.8653C26.9871 23.8437 26.9994 23.8229 27.0087 23.8013C27.1212 23.5346 27.2206 23.2617 27.3085 22.9835C27.3355 22.8979 27.354 22.8093 27.3787 22.7229C27.4334 22.5279 27.4881 22.3337 27.5305 22.134C27.5544 22.0215 27.5698 21.9059 27.5891 21.7918C27.6138 21.6476 27.6454 21.5066 27.6631 21.3601C27.8227 21.3401 27.9714 21.3146 28.1256 21.2923C28.2782 21.2699 28.4347 21.2499 28.5827 21.2252C28.7746 21.1936 28.9573 21.1582 29.1423 21.1227C29.2764 21.0973 29.4152 21.0741 29.5454 21.0464C29.742 21.0055 29.9285 20.9601 30.1166 20.9161C30.223 20.8907 30.3355 20.8676 30.4388 20.8414C30.687 20.7782 30.9244 20.7119 31.1564 20.644C31.1919 20.634 31.2312 20.624 31.2667 20.614C31.5318 20.5346 31.7854 20.4529 32.029 20.3688C32.1038 20.3426 32.1716 20.3157 32.2448 20.2895C32.409 20.2301 32.5732 20.1715 32.7266 20.1114C32.8129 20.0775 32.8908 20.0436 32.974 20.0096C33.1058 19.9557 33.2384 19.9017 33.3625 19.847C33.445 19.8108 33.5205 19.7745 33.5999 19.7375C33.6917 19.6952 33.7888 19.6528 33.8759 19.6104C33.307 27.5945 26.6302 33.9167 18.5042 33.9167C10.3744 33.9167 3.69376 27.5945 3.12335 19.6088C3.18656 19.6397 3.25824 19.6705 3.32376 19.7013Z" fill="#004D40"/>
<path d="M18.5003 15.2907C15.787 15.2907 13.5802 17.4991 13.5802 20.2139C13.5802 22.928 15.7878 25.1356 18.5003 25.1356C21.2136 25.1356 23.4212 22.928 23.4212 20.2139C23.422 17.4991 21.2144 15.2907 18.5003 15.2907ZM18.5003 22.0515C17.4875 22.0515 16.6635 21.2275 16.6635 20.2131C16.6635 19.1988 17.4875 18.3732 18.5003 18.3732C19.514 18.3732 20.338 19.198 20.338 20.2131C20.3387 21.2275 19.514 22.0515 18.5003 22.0515Z" fill="#004D40"/>
</svg>
